<?xml version="1.0" standalone="no"?>
<svg xmlns:xlink="http://www.w3.org/1999/xlink" id="wave" style="transform:rotate(0deg); transition: 0.3s" viewBox="0 0 1440 490" version="1.1" xmlns="http://www.w3.org/2000/svg"><defs><linearGradient id="sw-gradient-0" x1="0" x2="0" y1="1" y2="0"><stop stop-color="rgba(255, 255, 255, 1)" offset="0%"/><stop stop-color="rgba(255, 255, 255, 1)" offset="100%"/></linearGradient></defs><path style="transform:translate(0, 0px); opacity:1" fill="url(#sw-gradient-0)" d="M0,196L120,236.8C240,278,480,359,720,343C960,327,1200,212,1440,196C1680,180,1920,261,2160,253.2C2400,245,2640,147,2880,122.5C3120,98,3360,147,3600,196C3840,245,4080,294,4320,277.7C4560,261,4800,180,5040,130.7C5280,82,5520,65,5760,122.5C6000,180,6240,310,6480,302.2C6720,294,6960,147,7200,130.7C7440,114,7680,229,7920,253.2C8160,278,8400,212,8640,187.8C8880,163,9120,180,9360,187.8C9600,196,9840,196,10080,220.5C10320,245,10560,294,10800,285.8C11040,278,11280,212,11520,155.2C11760,98,12000,49,12240,40.8C12480,33,12720,65,12960,65.3C13200,65,13440,33,13680,40.8C13920,49,14160,98,14400,130.7C14640,163,14880,180,15120,228.7C15360,278,15600,359,15840,367.5C16080,376,16320,310,16560,261.3C16800,212,17040,180,17160,163.3L17280,147L17280,490L17160,490C17040,490,16800,490,16560,490C16320,490,16080,490,15840,490C15600,490,15360,490,15120,490C14880,490,14640,490,14400,490C14160,490,13920,490,13680,490C13440,490,13200,490,12960,490C12720,490,12480,490,12240,490C12000,490,11760,490,11520,490C11280,490,11040,490,10800,490C10560,490,10320,490,10080,490C9840,490,9600,490,9360,490C9120,490,8880,490,8640,490C8400,490,8160,490,7920,490C7680,490,7440,490,7200,490C6960,490,6720,490,6480,490C6240,490,6000,490,5760,490C5520,490,5280,490,5040,490C4800,490,4560,490,4320,490C4080,490,3840,490,3600,490C3360,490,3120,490,2880,490C2640,490,2400,490,2160,490C1920,490,1680,490,1440,490C1200,490,960,490,720,490C480,490,240,490,120,490L0,490Z"/></svg>