<?xml version="1.0" standalone="no"?>
<svg xmlns:xlink="http://www.w3.org/1999/xlink" id="wave" style="transform:rotate(0deg); transition: 0.3s" viewBox="0 0 1440 100" version="1.1" xmlns="http://www.w3.org/2000/svg"><defs><linearGradient id="sw-gradient-0" x1="0" x2="0" y1="1" y2="0"><stop stop-color="rgba(255, 255, 255, 1)" offset="0%"/><stop stop-color="rgba(255, 255, 255, 1)" offset="100%"/></linearGradient></defs><path style="transform:translate(0, 0px); opacity:1" fill="url(#sw-gradient-0)" d="M0,10L48,21.7C96,33,192,57,288,68.3C384,80,480,80,576,66.7C672,53,768,27,864,13.3C960,0,1056,0,1152,5C1248,10,1344,20,1440,26.7C1536,33,1632,37,1728,40C1824,43,1920,47,2016,40C2112,33,2208,17,2304,21.7C2400,27,2496,53,2592,53.3C2688,53,2784,27,2880,23.3C2976,20,3072,40,3168,43.3C3264,47,3360,33,3456,33.3C3552,33,3648,47,3744,46.7C3840,47,3936,33,4032,30C4128,27,4224,33,4320,45C4416,57,4512,73,4608,70C4704,67,4800,43,4896,33.3C4992,23,5088,27,5184,30C5280,33,5376,37,5472,35C5568,33,5664,27,5760,33.3C5856,40,5952,60,6048,68.3C6144,77,6240,73,6336,71.7C6432,70,6528,70,6624,60C6720,50,6816,30,6864,20L6912,10L6912,100L6864,100C6816,100,6720,100,6624,100C6528,100,6432,100,6336,100C6240,100,6144,100,6048,100C5952,100,5856,100,5760,100C5664,100,5568,100,5472,100C5376,100,5280,100,5184,100C5088,100,4992,100,4896,100C4800,100,4704,100,4608,100C4512,100,4416,100,4320,100C4224,100,4128,100,4032,100C3936,100,3840,100,3744,100C3648,100,3552,100,3456,100C3360,100,3264,100,3168,100C3072,100,2976,100,2880,100C2784,100,2688,100,2592,100C2496,100,2400,100,2304,100C2208,100,2112,100,2016,100C1920,100,1824,100,1728,100C1632,100,1536,100,1440,100C1344,100,1248,100,1152,100C1056,100,960,100,864,100C768,100,672,100,576,100C480,100,384,100,288,100C192,100,96,100,48,100L0,100Z"/></svg>